<?xml version="1.0" encoding="UTF-8" standalone="no"?>
<!-- Created with Inkscape (http://www.inkscape.org/) -->

<svg
   xmlns:dc="http://purl.org/dc/elements/1.1/"
   xmlns:cc="http://creativecommons.org/ns#"
   xmlns:rdf="http://www.w3.org/1999/02/22-rdf-syntax-ns#"
   xmlns:svg="http://www.w3.org/2000/svg"
   xmlns="http://www.w3.org/2000/svg"
   xmlns:sodipodi="http://sodipodi.sourceforge.net/DTD/sodipodi-0.dtd"
   xmlns:inkscape="http://www.inkscape.org/namespaces/inkscape"
   width="127"
   height="170"
   id="svg2522"
   sodipodi:version="0.32"
   inkscape:version="0.48.1 r9760"
   sodipodi:docname="Inheritance_contravariant_argument.svg"
   inkscape:output_extension="org.inkscape.output.svg.inkscape"
   version="1.0">
  <defs
     id="defs2524" />
  <sodipodi:namedview
     id="base"
     pagecolor="#ffffff"
     bordercolor="#666666"
     borderopacity="1.0"
     inkscape:pageopacity="0.0"
     inkscape:pageshadow="2"
     inkscape:zoom="2.8284273"
     inkscape:cx="23.052931"
     inkscape:cy="60.317316"
     inkscape:document-units="px"
     inkscape:current-layer="layer1"
     inkscape:window-width="827"
     inkscape:window-height="817"
     inkscape:window-x="36"
     inkscape:window-y="12"
     height="190px"
     width="130px"
     showgrid="false"
     inkscape:window-maximized="0" />
  <metadata
     id="metadata2527">
    <rdf:RDF>
      <cc:Work
         rdf:about="">
        <dc:format>image/svg+xml</dc:format>
        <dc:type
           rdf:resource="http://purl.org/dc/dcmitype/StillImage" />
        <dc:title />
      </cc:Work>
    </rdf:RDF>
  </metadata>
  <g
     inkscape:label="Ebene 1"
     inkscape:groupmode="layer"
     id="layer1"
     transform="translate(-151.33514,-356.69122)">
    <polygon
       transform="matrix(17.552097,0,0,17.552097,-2.8108628,295.20339)"
       id="polygon3149"
       points="12,7.76216 12.8,7.76216 12.8,7.76216 12.4,6.96216 "
       style="fill:#ffffff;fill-opacity:1;stroke:none" />
    <rect
       style="fill:#ffffff;fill-opacity:1;stroke:none"
       id="rect2173"
       width="119.75516"
       height="49.685295"
       x="154.95757"
       y="365.16153" />
    <rect
       y="470.39905"
       x="154.95757"
       height="49.685295"
       width="119.75516"
       id="rect2175"
       style="fill:#ffffff;fill-opacity:1;stroke:none" />
    <rect
       style="fill:none;stroke:#000000;stroke-width:1;stroke-miterlimit:4;stroke-dasharray:none"
       x="155.158"
       y="365.41177"
       width="119.35426"
       height="24.572935"
       id="rect3001" />
    <rect
       style="fill:none;stroke:#000000;stroke-width:1;stroke-miterlimit:4;stroke-dasharray:none"
       x="155.158"
       y="389.98471"
       width="119.35426"
       height="7.0208387"
       id="rect3007" />
    <rect
       style="fill:none;stroke:#000000;stroke-width:1;stroke-miterlimit:4;stroke-dasharray:none"
       x="155.158"
       y="397.00555"
       width="119.35426"
       height="17.552097"
       id="rect3011" />
    <rect
       style="fill:none;stroke:#000000;stroke-width:1;stroke-miterlimit:4;stroke-dasharray:none"
       x="155.158"
       y="470.72437"
       width="119.35426"
       height="24.572935"
       id="rect3017" />
    <rect
       style="fill:none;stroke:#000000;stroke-width:1;stroke-miterlimit:4;stroke-dasharray:none"
       x="155.158"
       y="495.2973"
       width="119.35426"
       height="7.0208387"
       id="rect3023" />
    <rect
       style="text-align:center;text-anchor:middle;fill:none;stroke:#000000;stroke-width:1;stroke-miterlimit:4;stroke-dasharray:none"
       x="155.158"
       y="502.31815"
       width="119.35426"
       height="17.552097"
       id="rect3027" />
    <polyline
       style="fill:none;stroke:#0000ff;stroke-width:0.1139465;stroke-miterlimit:4;stroke-dasharray:none"
       points="12.4,7.76216 12.4,9.94965 12.4,9.94965 "
       id="polyline3031"
       transform="matrix(17.552097,0,0,17.552097,-2.8108628,295.20339)" />
    <polygon
       style="fill:#ffffff"
       points="12,7.76216 12.8,7.76216 12.8,7.76216 12.4,6.96216 "
       id="polygon3033"
       transform="matrix(17.552097,0,0,17.552097,-2.8108628,295.20339)" />
    <polygon
       style="fill:none;stroke:#0000ff;stroke-width:0.1139465;stroke-miterlimit:4;stroke-dasharray:none"
       points="12,7.76216 12.8,7.76216 12.8,7.76216 12.4,6.96216 "
       id="polygon3035"
       transform="matrix(17.552097,0,0,17.552097,-2.8108628,295.20339)" />
    <g
       id="g5681"
       transform="translate(34,0)">
      <polyline
         style="opacity:0.5;fill:none;stroke:#ff8d1b;stroke-width:0.08170101;stroke-miterlimit:4;stroke-opacity:1;stroke-dasharray:none"
         points="12.4,7.76216 12.4,9.94965 12.4,9.94965 "
         id="polyline4241"
         transform="matrix(17.552097,0,0,-34.141005,-2.8108628,752.11516)" />
      <polygon
         style="opacity:0.5;fill:none;stroke:#ff8d1b;stroke-width:0.1139465;stroke-miterlimit:4;stroke-opacity:1;stroke-dasharray:none"
         points="12.4,6.96216 12,7.76216 12.8,7.76216 12.8,7.76216 "
         id="polygon4243"
         transform="matrix(17.552097,0,0,-17.552097,-2.8108628,624.04114)" />
    </g>
    <path
       style="font-size:14px;font-style:normal;font-weight:bold;text-align:center;text-anchor:middle;fill:#000000;fill-opacity:1;stroke:none;font-family:Bitstream Vera Sans"
       d="m 197.86492,382.35693 c -0.48308,0.25065 -0.98666,0.43978 -1.51074,0.56739 -0.5241,0.1276 -1.07096,0.1914 -1.64062,0.1914 -1.69988,0 -3.04655,-0.47509 -4.04005,-1.42529 -0.99349,-0.95019 -1.49023,-2.23877 -1.49023,-3.86572 0,-1.63151 0.49674,-2.92236 1.49023,-3.87256 0.9935,-0.95019 2.34017,-1.42528 4.04005,-1.42529 0.56966,10e-6 1.11653,0.0638 1.64062,0.1914 0.52408,0.12762 1.02766,0.31674 1.51074,0.56738 l 0,2.11231 c -0.48764,-0.33268 -0.96843,-0.57649 -1.44237,-0.73145 -0.47398,-0.15494 -0.973,-0.23241 -1.49708,-0.23242 -0.9388,1e-5 -1.67708,0.30079 -2.21485,0.90235 -0.53776,0.60157 -0.80664,1.43099 -0.80664,2.48828 0,1.05274 0.26888,1.87988 0.80664,2.48144 0.53776,0.60157 1.27604,0.90235 2.21485,0.90235 0.52408,0 1.0231,-0.0775 1.49708,-0.23243 0.47395,-0.15494 0.95473,-0.39876 1.44238,-0.73144 l 0,2.1123 z m 2.07813,-10.07617 2.44726,0 0,10.63672 -2.44726,0 0,-10.63672 z m 8.24414,7.19141 c -0.51042,0 -0.89438,0.0866 -1.15186,0.25976 -0.25749,0.17318 -0.38623,0.42839 -0.38623,0.76563 0,0.3099 0.10368,0.55257 0.31104,0.72803 0.20735,0.17545 0.4956,0.26318 0.86474,0.26318 0.46028,0 0.84765,-0.1652 1.16211,-0.49561 0.31445,-0.3304 0.47168,-0.74397 0.47168,-1.24072 l 0,-0.28027 -1.27148,0 z m 3.73925,-0.92285 0,4.36816 -2.46777,0 0,-1.13477 c -0.32813,0.46485 -0.69727,0.80323 -1.10742,1.01514 -0.41016,0.21192 -0.90918,0.31787 -1.49707,0.31787 -0.79297,0 -1.43669,-0.23128 -1.93115,-0.69384 -0.49447,-0.46257 -0.7417,-1.06299 -0.7417,-1.80127 0,-0.89779 0.30875,-1.55632 0.92627,-1.97559 0.61751,-0.41927 1.58707,-0.6289 2.90869,-0.62891 l 1.44238,0 0,-0.1914 c 0,-0.38737 -0.15267,-0.67106 -0.45801,-0.85108 -0.30534,-0.18 -0.78158,-0.27001 -1.42871,-0.27002 -0.52409,10e-6 -1.01172,0.0524 -1.46289,0.15723 -0.45117,0.10482 -0.87044,0.26205 -1.25781,0.47168 l 0,-1.86621 c 0.52409,-0.1276 1.05045,-0.22444 1.5791,-0.29053 0.52864,-0.0661 1.05729,-0.0991 1.58594,-0.0991 1.38085,10e-6 2.37776,0.27231 2.99072,0.81689 0.61295,0.54461 0.91943,1.42986 0.91943,2.65577 l 0,0 z m 8.27149,-3.04883 0,1.85937 c -0.5241,-0.21874 -1.02996,-0.3828 -1.51758,-0.49218 -0.48763,-0.10937 -0.94792,-0.16406 -1.38086,-0.16407 -0.46485,10e-6 -0.81006,0.0581 -1.03564,0.17432 -0.22559,0.11622 -0.33839,0.29509 -0.33838,0.53662 -1e-5,0.19597 0.0854,0.34636 0.25635,0.45117 0.17089,0.10483 0.47737,0.1823 0.91943,0.23242 l 0.43066,0.0615 c 1.25325,0.15951 2.09635,0.42155 2.5293,0.78613 0.43294,0.36459 0.64941,0.93653 0.64941,1.71582 0,0.81576 -0.30078,1.42871 -0.90234,1.83887 -0.60157,0.41015 -1.49935,0.61523 -2.69336,0.61523 -0.50586,0 -1.02881,-0.0399 -1.56885,-0.11963 -0.54004,-0.0797 -1.09489,-0.19938 -1.66455,-0.35888 l 0,-1.85938 c 0.48763,0.23698 0.98779,0.41472 1.50049,0.53321 0.51269,0.11849 1.03336,0.17773 1.56201,0.17773 0.47851,0 0.83854,-0.0661 1.08008,-0.19824 0.24153,-0.13216 0.3623,-0.32813 0.36231,-0.58789 -1e-5,-0.21875 -0.0832,-0.38167 -0.24952,-0.48877 -0.16634,-0.1071 -0.49789,-0.19027 -0.99463,-0.24951 l -0.43066,-0.0547 c -1.08919,-0.13672 -1.85254,-0.38965 -2.29004,-0.75879 -0.4375,-0.36914 -0.65625,-0.92968 -0.65625,-1.68164 0,-0.81119 0.278,-1.41276 0.83399,-1.80469 0.55598,-0.39192 1.4082,-0.58788 2.55664,-0.58789 0.45116,1e-5 0.92512,0.0342 1.42187,0.10254 0.49674,0.0684 1.03678,0.17546 1.62012,0.32129 l 0,0 z m 8.33984,0 0,1.85937 c -0.52409,-0.21874 -1.02995,-0.3828 -1.51758,-0.49218 -0.48763,-0.10937 -0.94792,-0.16406 -1.38085,-0.16407 -0.46485,10e-6 -0.81007,0.0581 -1.03565,0.17432 -0.22559,0.11622 -0.33838,0.29509 -0.33838,0.53662 0,0.19597 0.0854,0.34636 0.25635,0.45117 0.17089,0.10483 0.47737,0.1823 0.91943,0.23242 l 0.43067,0.0615 c 1.25325,0.15951 2.09634,0.42155 2.52929,0.78613 0.43294,0.36459 0.64941,0.93653 0.64942,1.71582 -1e-5,0.81576 -0.30079,1.42871 -0.90235,1.83887 -0.60156,0.41015 -1.49935,0.61523 -2.69336,0.61523 -0.50586,0 -1.02881,-0.0399 -1.56884,-0.11963 -0.54004,-0.0797 -1.09489,-0.19938 -1.66455,-0.35888 l 0,-1.85938 c 0.48763,0.23698 0.98779,0.41472 1.50048,0.53321 0.5127,0.11849 1.03337,0.17773 1.56202,0.17773 0.47851,0 0.83853,-0.0661 1.08007,-0.19824 0.24154,-0.13216 0.3623,-0.32813 0.36231,-0.58789 -1e-5,-0.21875 -0.0832,-0.38167 -0.24951,-0.48877 -0.16635,-0.1071 -0.49789,-0.19027 -0.99463,-0.24951 l -0.43067,-0.0547 c -1.08919,-0.13672 -1.85254,-0.38965 -2.29003,-0.75879 -0.43751,-0.36914 -0.65626,-0.92968 -0.65625,-1.68164 -1e-5,-0.81119 0.27799,-1.41276 0.83398,-1.80469 0.55599,-0.39192 1.4082,-0.58788 2.55664,-0.58789 0.45117,1e-5 0.92513,0.0342 1.42188,0.10254 0.49673,0.0684 1.03677,0.17546 1.62011,0.32129 l 0,0 z m 8.66114,5.55762 -4.11524,0 -0.64941,1.85937 -2.64551,0 3.78027,-10.20605 3.1377,0 3.78027,10.20605 -2.64551,0 -0.64257,-1.85937 z m -3.45899,-1.89356 2.7959,0 -1.39453,-4.06055 -1.40137,4.06055 z"
       id="text2181"
       inkscape:connector-curvature="0" />
    <path
       style="font-size:14px;font-style:normal;font-weight:normal;text-align:center;text-anchor:middle;fill:#000000;fill-opacity:1;stroke:none;font-family:Bitstream Vera Sans Mono"
       d="m 165.79412,403.30017 c 0.15494,-0.32812 0.35205,-0.57079 0.59131,-0.72803 0.23925,-0.15722 0.5275,-0.23583 0.86474,-0.23584 0.61523,1e-5 1.04931,0.23813 1.30225,0.71436 0.25292,0.47624 0.37939,1.37289 0.3794,2.68994 l 0,4.43652 -1.14844,0 0,-4.38183 c -1e-5,-1.08007 -0.0604,-1.75114 -0.18115,-2.01319 -0.12078,-0.26203 -0.34067,-0.39306 -0.65967,-0.39306 -0.36459,0 -0.6141,0.14014 -0.74854,0.42041 -0.13444,0.28028 -0.20166,0.94222 -0.20166,1.98584 l 0,4.38183 -1.14844,0 0,-4.38183 c 0,-1.09375 -0.0649,-1.76822 -0.19482,-2.02344 -0.12989,-0.2552 -0.36345,-0.38281 -0.70068,-0.38281 -0.33269,0 -0.56397,0.14014 -0.69385,0.42041 -0.12989,0.28028 -0.19483,0.94222 -0.19482,1.98584 l 0,4.38183 -1.14161,0 0,-7.65625 1.14162,0 0,0.65625 c 0.15038,-0.27343 0.33837,-0.48192 0.56396,-0.62548 0.22558,-0.14355 0.48193,-0.21533 0.76904,-0.21534 0.34635,1e-5 0.6346,0.0798 0.86474,0.23926 0.23015,0.15951 0.40901,0.40105 0.53662,0.72461 l 0,0 z m 11.40234,2.73438 0,0.61523 -5.44824,0 0,0.041 c 0,0.83398 0.21761,1.47884 0.65283,1.93457 0.43522,0.45573 1.04932,0.68359 1.84229,0.68359 0.40104,0 0.82031,-0.0638 1.25781,-0.19141 0.4375,-0.1276 0.90462,-0.32128 1.40137,-0.58105 l 0,1.25098 c -0.47852,0.19596 -0.93995,0.34293 -1.38428,0.44091 -0.44434,0.098 -0.87386,0.14698 -1.28856,0.14698 -1.18946,0 -2.11915,-0.35661 -2.78908,-1.06983 -0.66991,-0.71321 -1.00487,-1.69645 -1.00487,-2.94971 0,-1.22134 0.32812,-2.1966 0.98437,-2.92578 0.65624,-0.72916 1.53124,-1.09374 2.625,-1.09375 0.97525,1e-5 1.7443,0.33041 2.30713,0.99121 0.56282,0.66082 0.84424,1.56316 0.84424,2.70704 l 0,0 z m -1.25781,-0.36914 c -0.0182,-0.73828 -0.19255,-1.29997 -0.52295,-1.68506 -0.33041,-0.38509 -0.8055,-0.57763 -1.42529,-0.57764 -0.60612,10e-6 -1.10515,0.20053 -1.49707,0.60156 -0.39193,0.40105 -0.62435,0.95704 -0.69727,1.66797 l 4.14258,-0.007 z m 6.27539,-5.31836 0,2.17382 2.85742,0 0,0.97754 -2.85742,0 0,4.15625 c 0,0.56511 0.10709,0.95931 0.32129,1.18262 0.21419,0.22331 0.58789,0.33496 1.12109,0.33496 l 1.41504,0 0,1.00488 -1.53808,0 c -0.94337,0 -1.60873,-0.18912 -1.9961,-0.56738 -0.38737,-0.37825 -0.58105,-1.02995 -0.58105,-1.95508 l 0,-4.15625 -2.04395,0 0,-0.97754 2.04395,0 0,-2.17382 1.25781,0 z m 11.40918,5.08593 0,4.74414 -1.26465,0 0,-4.74414 c 0,-0.68814 -0.12077,-1.194 -0.3623,-1.51757 -0.24154,-0.32357 -0.6198,-0.48535 -1.13477,-0.48536 -0.58789,1e-5 -1.0402,0.20851 -1.35693,0.62549 -0.31674,0.417 -0.4751,1.01514 -0.4751,1.79444 l 0,4.32714 -1.25781,0 0,-10.63671 1.25781,0 0,4.1289 c 0.22331,-0.43749 0.52637,-0.76903 0.90918,-0.99463 0.38281,-0.22558 0.83626,-0.33837 1.36035,-0.33838 0.77929,1e-5 1.36149,0.25636 1.74659,0.76905 0.38508,0.5127 0.57762,1.28858 0.57763,2.32763 l 0,0 z m 5.44824,-2.03027 c -0.63802,10e-6 -1.12109,0.24838 -1.44921,0.74512 -0.32813,0.49675 -0.49219,1.23275 -0.49219,2.208 0,0.97071 0.16406,1.70557 0.49219,2.20459 0.32812,0.49903 0.81119,0.74854 1.44921,0.74854 0.64258,0 1.12793,-0.24951 1.45606,-0.74854 0.32812,-0.49902 0.49218,-1.23388 0.49219,-2.20459 -1e-5,-0.97525 -0.16407,-1.71125 -0.49219,-2.208 -0.32813,-0.49674 -0.81348,-0.74511 -1.45606,-0.74512 l 0,0 z m 0,-1.06641 c 1.06185,1e-5 1.87418,0.34409 2.43702,1.03223 0.56281,0.68816 0.84423,1.68392 0.84423,2.9873 0,1.30795 -0.28028,2.30486 -0.84082,2.99073 -0.56055,0.68587 -1.37403,1.02881 -2.44043,1.02881 -1.06185,0 -1.87305,-0.34294 -2.43359,-1.02881 -0.56055,-0.68587 -0.84082,-1.68278 -0.84082,-2.99073 0,-1.30338 0.28027,-2.29914 0.84082,-2.9873 0.56054,-0.68814 1.37174,-1.03222 2.43359,-1.03223 l 0,0 z m 10.07618,1.16211 0,-3.958 1.25781,0 0,10.63671 -1.25781,0 0,-0.96386 c -0.20965,0.37825 -0.48878,0.6665 -0.83741,0.86474 -0.34863,0.19825 -0.75081,0.29737 -1.20654,0.29737 -0.92513,0 -1.65316,-0.35889 -2.18408,-1.07666 -0.53093,-0.71778 -0.79639,-1.70785 -0.79639,-2.97022 0,-1.24413 0.2666,-2.22053 0.79981,-2.9292 0.5332,-0.70865 1.26008,-1.06298 2.18066,-1.06299 0.46028,1e-5 0.86588,0.0991 1.2168,0.29737 0.3509,0.19825 0.62662,0.48649 0.82715,0.86474 l 0,0 z m -3.69825,2.85742 c 0,0.97527 0.15495,1.71127 0.46485,2.20801 0.30989,0.49675 0.7679,0.74512 1.37402,0.74512 0.60612,0 1.06754,-0.25065 1.38428,-0.75195 0.31672,-0.5013 0.47509,-1.23503 0.4751,-2.20118 -1e-5,-0.97069 -0.15838,-1.70556 -0.4751,-2.20458 -0.31674,-0.49902 -0.77816,-0.74853 -1.38428,-0.74854 -0.60612,10e-6 -1.06413,0.24838 -1.37402,0.74512 -0.3099,0.49675 -0.46485,1.23275 -0.46485,2.208 l 0,0 z m 12.30469,-6.80175 c -0.60612,1.03907 -1.05843,2.07471 -1.35693,3.10693 -0.29851,1.03223 -0.44776,2.07243 -0.44776,3.12061 0,1.04362 0.14925,2.08268 0.44776,3.11718 0.2985,1.03451 0.75081,2.07585 1.35693,3.12403 l -1.09375,0 c -0.68815,-1.08464 -1.20085,-2.14079 -1.53808,-3.16846 -0.33725,-1.02767 -0.50587,-2.05192 -0.50586,-3.07275 -1e-5,-1.01627 0.16861,-2.03939 0.50586,-3.06934 0.33723,-1.02994 0.84993,-2.08267 1.53808,-3.1582 l 1.09375,0 z m 6.56934,0.79297 0,2.17382 2.85742,0 0,0.97754 -2.85742,0 0,4.15625 c -1e-5,0.56511 0.10709,0.95931 0.32129,1.18262 0.21418,0.22331 0.58788,0.33496 1.12109,0.33496 l 1.41504,0 0,1.00488 -1.53809,0 c -0.94336,0 -1.60872,-0.18912 -1.99609,-0.56738 -0.38737,-0.37825 -0.58106,-1.02995 -0.58106,-1.95508 l 0,-4.15625 -2.04394,0 0,-0.97754 2.04394,0 0,-2.17382 1.25782,0 z m 9.02343,-0.37598 0,3.79394 -1.18945,0 0,-3.79394 1.18945,0 z m 6.96582,2.93945 1.72266,0 0,2.07129 -1.72266,0 0,-2.07129 z m 0,5.18164 1.72266,0 0,2.08496 -1.72266,0 0,-2.08496 z m 5.4004,-8.12109 7.78613,0 0,1.16211 -3.19238,0 0,9.04394 -1.3877,0 0,-9.04394 -3.20605,0 0,-1.16211 z m 12.89941,0 0,3.79394 -1.18945,0 0,-3.79394 1.18945,0 z m 6.00195,-0.41699 1.09375,0 c 0.68816,1.07553 1.20085,2.12826 1.53809,3.1582 0.33723,1.02995 0.50585,2.05307 0.50586,3.06934 -1e-5,1.02539 -0.16863,2.05306 -0.50586,3.083 -0.33724,1.02995 -0.84993,2.08269 -1.53809,3.15821 l -1.09375,0 c 0.60612,-1.0573 1.05843,-2.10319 1.35694,-3.1377 0.29849,-1.0345 0.44775,-2.06901 0.44775,-3.10351 0,-1.03906 -0.14926,-2.07584 -0.44775,-3.11036 -0.29851,-1.03449 -0.75082,-2.07355 -1.35694,-3.11718 l 0,0 z"
       id="text2185"
       inkscape:connector-curvature="0" />
    <path
       style="font-size:14px;font-style:normal;font-weight:normal;text-align:center;text-anchor:middle;fill:#000000;fill-opacity:1;stroke:none;font-family:Bitstream Vera Sans Mono"
       d="m 165.79412,508.61273 c 0.15495,-0.32812 0.35205,-0.57079 0.59131,-0.72803 0.23925,-0.15721 0.5275,-0.23583 0.86475,-0.23584 0.61522,10e-6 1.0493,0.23813 1.30224,0.71436 0.25292,0.47624 0.37939,1.37289 0.3794,2.68994 l 0,4.43653 -1.14844,0 0,-4.38184 c -1e-5,-1.08007 -0.0604,-1.75113 -0.18115,-2.01318 -0.12078,-0.26204 -0.34066,-0.39306 -0.65967,-0.39307 -0.36459,1e-5 -0.6141,0.14014 -0.74854,0.42041 -0.13444,0.28028 -0.20166,0.94222 -0.20166,1.98584 l 0,4.38184 -1.14843,0 0,-4.38184 c 0,-1.09375 -0.0649,-1.76822 -0.19482,-2.02344 -0.12989,-0.2552 -0.36345,-0.3828 -0.70068,-0.38281 -0.3327,1e-5 -0.56398,0.14014 -0.69385,0.42041 -0.12989,0.28028 -0.19483,0.94222 -0.19482,1.98584 l 0,4.38184 -1.14161,0 0,-7.65625 1.14161,0 0,0.65625 c 0.15038,-0.27344 0.33837,-0.48193 0.56396,-0.62549 0.22558,-0.14355 0.48193,-0.21533 0.76904,-0.21534 0.34635,10e-6 0.6346,0.0798 0.86475,0.23926 0.23014,0.15952 0.40901,0.40105 0.53662,0.72461 l 0,0 z m 11.40235,2.73438 0,0.61523 -5.44824,0 0,0.041 c 0,0.83398 0.21761,1.47884 0.65283,1.93457 0.43521,0.45573 1.04931,0.68359 1.84228,0.68359 0.40104,0 0.82031,-0.0638 1.25781,-0.19141 0.4375,-0.1276 0.90462,-0.32128 1.40138,-0.58105 l 0,1.25098 c -0.47852,0.19596 -0.93995,0.34293 -1.38428,0.44091 -0.44434,0.098 -0.87386,0.14698 -1.28857,0.14698 -1.18946,0 -2.11915,-0.35661 -2.78907,-1.06983 -0.66992,-0.71321 -1.00488,-1.69645 -1.00488,-2.9497 0,-1.22135 0.32813,-2.19661 0.98438,-2.92579 0.65624,-0.72915 1.53124,-1.09374 2.625,-1.09375 0.97525,10e-6 1.74429,0.33042 2.30713,0.99122 0.56281,0.66081 0.84423,1.56315 0.84423,2.70703 l 0,0 z m -1.25782,-0.36914 c -0.0182,-0.73828 -0.19255,-1.29997 -0.52295,-1.68506 -0.33041,-0.38509 -0.8055,-0.57763 -1.42528,-0.57764 -0.60613,1e-5 -1.10516,0.20053 -1.49708,0.60156 -0.39193,0.40105 -0.62435,0.95704 -0.69727,1.66797 l 4.14258,-0.007 z m 6.27539,-5.31836 0,2.17383 2.85742,0 0,0.97753 -2.85742,0 0,4.15625 c 0,0.56511 0.10709,0.95932 0.32129,1.18262 0.21419,0.22331 0.58789,0.33496 1.1211,0.33496 l 1.41504,0 0,1.00489 -1.53809,0 c -0.94336,0 -1.60873,-0.18913 -1.9961,-0.56739 -0.38737,-0.37825 -0.58105,-1.02994 -0.58105,-1.95508 l 0,-4.15625 -2.04395,0 0,-0.97753 2.04395,0 0,-2.17383 1.25781,0 z m 11.40918,5.08593 0,4.74415 -1.26465,0 0,-4.74415 c 0,-0.68814 -0.12077,-1.194 -0.3623,-1.51757 -0.24154,-0.32356 -0.6198,-0.48535 -1.13477,-0.48536 -0.58789,10e-6 -1.0402,0.20851 -1.35693,0.62549 -0.31674,0.417 -0.4751,1.01514 -0.4751,1.79444 l 0,4.32715 -1.25781,0 0,-10.63672 1.25781,0 0,4.1289 c 0.22331,-0.43749 0.52637,-0.76903 0.90918,-0.99463 0.38281,-0.22557 0.83626,-0.33837 1.36035,-0.33838 0.77929,10e-6 1.36149,0.25636 1.74659,0.76905 0.38508,0.5127 0.57762,1.28858 0.57763,2.32763 l 0,0 z m 5.44824,-2.03027 c -0.63802,1e-5 -1.12109,0.24838 -1.44921,0.74512 -0.32813,0.49675 -0.49219,1.23275 -0.49219,2.20801 0,0.9707 0.16406,1.70556 0.49219,2.20459 0.32812,0.49902 0.81119,0.74853 1.44921,0.74853 0.64258,0 1.12793,-0.24951 1.45606,-0.74853 0.32812,-0.49903 0.49218,-1.23389 0.49219,-2.20459 -1e-5,-0.97526 -0.16407,-1.71126 -0.49219,-2.20801 -0.32813,-0.49674 -0.81348,-0.74511 -1.45606,-0.74512 l 0,0 z m 0,-1.06641 c 1.06185,10e-6 1.87418,0.34409 2.43702,1.03223 0.56281,0.68816 0.84423,1.68393 0.84423,2.98731 0,1.30794 -0.28028,2.30485 -0.84082,2.99072 -0.56055,0.68587 -1.37403,1.02881 -2.44043,1.02881 -1.06185,0 -1.87305,-0.34294 -2.43359,-1.02881 -0.56055,-0.68587 -0.84082,-1.68278 -0.84082,-2.99072 0,-1.30338 0.28027,-2.29915 0.84082,-2.98731 0.56054,-0.68814 1.37174,-1.03222 2.43359,-1.03223 l 0,0 z m 10.07618,1.16211 0,-3.958 1.25781,0 0,10.63672 -1.25781,0 0,-0.96387 c -0.20965,0.37825 -0.48878,0.6665 -0.83741,0.86474 -0.34863,0.19825 -0.75081,0.29737 -1.20654,0.29737 -0.92513,0 -1.65316,-0.35889 -2.18408,-1.07666 -0.53093,-0.71777 -0.79639,-1.70785 -0.79639,-2.97022 0,-1.24413 0.2666,-2.22053 0.79981,-2.9292 0.5332,-0.70865 1.26008,-1.06298 2.18066,-1.06299 0.46028,10e-6 0.86588,0.0991 1.2168,0.29737 0.3509,0.19825 0.62662,0.4865 0.82715,0.86474 l 0,0 z m -3.69825,2.85743 c 0,0.97526 0.15495,1.71126 0.46485,2.208 0.30989,0.49675 0.7679,0.74512 1.37402,0.74512 0.60612,0 1.06754,-0.25065 1.38428,-0.75195 0.31672,-0.5013 0.47509,-1.23503 0.4751,-2.20117 -1e-5,-0.9707 -0.15838,-1.70556 -0.4751,-2.20459 -0.31674,-0.49902 -0.77816,-0.74853 -1.38428,-0.74854 -0.60612,1e-5 -1.06413,0.24838 -1.37402,0.74512 -0.3099,0.49675 -0.46485,1.23275 -0.46485,2.20801 l 0,0 z m 12.30469,-6.80176 c -0.60612,1.03907 -1.05843,2.07471 -1.35693,3.10693 -0.29851,1.03223 -0.44776,2.07244 -0.44776,3.12061 0,1.04362 0.14925,2.08268 0.44776,3.11718 0.2985,1.03451 0.75081,2.07585 1.35693,3.12403 l -1.09375,0 c -0.68815,-1.08464 -1.20085,-2.14079 -1.53808,-3.16846 -0.33725,-1.02767 -0.50587,-2.05192 -0.50586,-3.07275 -1e-5,-1.01627 0.16861,-2.03938 0.50586,-3.06934 0.33723,-1.02994 0.84993,-2.08267 1.53808,-3.1582 l 1.09375,0 z m 6.56934,0.79297 0,2.17383 2.85742,0 0,0.97753 -2.85742,0 0,4.15625 c -1e-5,0.56511 0.10709,0.95932 0.32129,1.18262 0.21418,0.22331 0.58788,0.33496 1.12109,0.33496 l 1.41504,0 0,1.00489 -1.53809,0 c -0.94336,0 -1.60872,-0.18913 -1.99609,-0.56739 -0.38737,-0.37825 -0.58106,-1.02994 -0.58106,-1.95508 l 0,-4.15625 -2.04394,0 0,-0.97753 2.04394,0 0,-2.17383 1.25782,0 z m 15.98925,2.56347 1.72266,0 0,2.07129 -1.72266,0 0,-2.07129 z m 0,5.18164 1.72266,0 0,2.08497 -1.72266,0 0,-2.08497 z m 5.4004,-8.12109 7.78613,0 0,1.16211 -3.19238,0 0,9.04395 -1.3877,0 0,-9.04395 -3.20605,0 0,-1.16211 z m 18.90136,-0.41699 1.09375,0 c 0.68815,1.07553 1.20084,2.12826 1.53809,3.1582 0.33723,1.02996 0.50585,2.05307 0.50586,3.06934 -1e-5,1.02539 -0.16863,2.05306 -0.50586,3.08301 -0.33725,1.02994 -0.84994,2.08268 -1.53809,3.1582 l -1.09375,0 c 0.60612,-1.05729 1.05843,-2.10319 1.35694,-3.1377 0.29849,-1.0345 0.44775,-2.069 0.44775,-3.10351 0,-1.03906 -0.14926,-2.07584 -0.44775,-3.11035 -0.29851,-1.0345 -0.75082,-2.07356 -1.35694,-3.11719 l 0,0 z"
       id="text2189"
       inkscape:connector-curvature="0" />
    <path
       style="font-size:14px;font-style:normal;font-weight:bold;text-align:center;text-anchor:middle;fill:#000000;fill-opacity:1;stroke:none;font-family:Bitstream Vera Sans"
       d="m 198.40494,487.66953 c -0.48308,0.25065 -0.98666,0.43977 -1.51074,0.56738 -0.5241,0.1276 -1.07097,0.1914 -1.64063,0.1914 -1.69987,0 -3.04654,-0.47509 -4.04004,-1.42529 -0.99349,-0.95019 -1.49023,-2.23876 -1.49023,-3.86572 0,-1.63151 0.49674,-2.92236 1.49023,-3.87256 0.9935,-0.95019 2.34017,-1.42528 4.04004,-1.42529 0.56966,10e-6 1.11654,0.0638 1.64063,0.1914 0.52408,0.12762 1.02766,0.31674 1.51074,0.56739 l 0,2.1123 c -0.48764,-0.33267 -0.96843,-0.57649 -1.44238,-0.73144 -0.47397,-0.15494 -0.97299,-0.23242 -1.49707,-0.23243 -0.93881,1e-5 -1.67709,0.30079 -2.21485,0.90235 -0.53776,0.60157 -0.80664,1.43099 -0.80664,2.48828 0,1.05274 0.26888,1.87988 0.80664,2.48144 0.53776,0.60157 1.27604,0.90235 2.21485,0.90235 0.52408,0 1.0231,-0.0775 1.49707,-0.23242 0.47395,-0.15495 0.95474,-0.39876 1.44238,-0.73145 l 0,2.11231 z m 2.07813,-10.07618 2.44726,0 0,10.63672 -2.44726,0 0,-10.63672 z m 8.24414,7.19141 c -0.51043,0 -0.89438,0.0866 -1.15186,0.25977 -0.25749,0.17318 -0.38623,0.42838 -0.38623,0.76562 0,0.3099 0.10367,0.55257 0.31103,0.72803 0.20736,0.17545 0.49561,0.26318 0.86475,0.26318 0.46028,0 0.84765,-0.1652 1.16211,-0.4956 0.31445,-0.33041 0.47167,-0.74398 0.47168,-1.24073 l 0,-0.28027 -1.27148,0 z m 3.73925,-0.92285 0,4.36816 -2.46777,0 0,-1.13476 c -0.32813,0.46484 -0.69727,0.80322 -1.10742,1.01513 -0.41016,0.21192 -0.90919,0.31787 -1.49707,0.31787 -0.79297,0 -1.43669,-0.23128 -1.93115,-0.69384 -0.49447,-0.46257 -0.7417,-1.06299 -0.7417,-1.80127 0,-0.89779 0.30875,-1.55631 0.92627,-1.97559 0.61751,-0.41927 1.58707,-0.6289 2.90869,-0.62891 l 1.44238,0 0,-0.1914 c -1e-5,-0.38737 -0.15267,-0.67106 -0.45801,-0.85108 -0.30534,-0.18 -0.78158,-0.27001 -1.42871,-0.27002 -0.52409,10e-6 -1.01172,0.0524 -1.46289,0.15723 -0.45117,0.10483 -0.87044,0.26205 -1.25781,0.47168 l 0,-1.86621 c 0.52408,-0.1276 1.05045,-0.22444 1.5791,-0.29053 0.52864,-0.0661 1.05729,-0.0991 1.58594,-0.0991 1.38085,10e-6 2.37776,0.27231 2.99072,0.8169 0.61295,0.5446 0.91943,1.42985 0.91943,2.65576 l 0,0 z m 8.27149,-3.04883 0,1.85937 c -0.5241,-0.21874 -1.02996,-0.3828 -1.51758,-0.49218 -0.48764,-0.10937 -0.94792,-0.16406 -1.38086,-0.16407 -0.46485,10e-6 -0.81006,0.0581 -1.03564,0.17432 -0.22559,0.11622 -0.33839,0.29509 -0.33838,0.53662 -10e-6,0.19597 0.0854,0.34636 0.25634,0.45117 0.1709,0.10483 0.47738,0.1823 0.91944,0.23243 l 0.43066,0.0615 c 1.25325,0.15951 2.09635,0.42155 2.5293,0.78613 0.43293,0.36459 0.64941,0.93653 0.64941,1.71582 0,0.81576 -0.30079,1.42871 -0.90234,1.83887 -0.60157,0.41016 -1.49935,0.61523 -2.69336,0.61523 -0.50586,0 -1.02881,-0.0399 -1.56885,-0.11962 -0.54004,-0.0798 -1.09489,-0.19939 -1.66455,-0.35889 l 0,-1.85938 c 0.48763,0.23698 0.98779,0.41472 1.50049,0.53321 0.51269,0.11849 1.03336,0.17773 1.56201,0.17773 0.47851,0 0.83854,-0.0661 1.08008,-0.19824 0.24153,-0.13216 0.3623,-0.32812 0.3623,-0.58789 0,-0.21875 -0.0832,-0.38167 -0.24951,-0.48877 -0.16634,-0.10709 -0.49789,-0.19027 -0.99463,-0.24951 l -0.43066,-0.0547 c -1.0892,-0.13672 -1.85254,-0.38965 -2.29004,-0.75879 -0.4375,-0.36914 -0.65625,-0.92968 -0.65625,-1.68164 0,-0.81119 0.27799,-1.41275 0.83399,-1.80469 0.55598,-0.39192 1.4082,-0.58788 2.55664,-0.58789 0.45116,10e-6 0.92512,0.0342 1.42187,0.10254 0.49674,0.0684 1.03678,0.17546 1.62012,0.32129 l 0,0 z m 8.33984,0 0,1.85937 c -0.52409,-0.21874 -1.02995,-0.3828 -1.51758,-0.49218 -0.48763,-0.10937 -0.94792,-0.16406 -1.38086,-0.16407 -0.46484,10e-6 -0.81006,0.0581 -1.03564,0.17432 -0.22559,0.11622 -0.33838,0.29509 -0.33838,0.53662 0,0.19597 0.0855,0.34636 0.25635,0.45117 0.17089,0.10483 0.47737,0.1823 0.91943,0.23243 l 0.43067,0.0615 c 1.25325,0.15951 2.09634,0.42155 2.52929,0.78613 0.43294,0.36459 0.64941,0.93653 0.64942,1.71582 -10e-6,0.81576 -0.30079,1.42871 -0.90235,1.83887 -0.60157,0.41016 -1.49935,0.61523 -2.69336,0.61523 -0.50586,0 -1.02881,-0.0399 -1.56884,-0.11962 -0.54004,-0.0798 -1.09489,-0.19939 -1.66455,-0.35889 l 0,-1.85938 c 0.48762,0.23698 0.98779,0.41472 1.50048,0.53321 0.5127,0.11849 1.03337,0.17773 1.56202,0.17773 0.47851,0 0.83853,-0.0661 1.08007,-0.19824 0.24153,-0.13216 0.3623,-0.32812 0.36231,-0.58789 -1e-5,-0.21875 -0.0832,-0.38167 -0.24951,-0.48877 -0.16635,-0.10709 -0.49789,-0.19027 -0.99463,-0.24951 l -0.43067,-0.0547 c -1.08919,-0.13672 -1.85254,-0.38965 -2.29004,-0.75879 -0.4375,-0.36914 -0.65625,-0.92968 -0.65625,-1.68164 0,-0.81119 0.278,-1.41275 0.83399,-1.80469 0.55599,-0.39192 1.4082,-0.58788 2.55664,-0.58789 0.45117,10e-6 0.92512,0.0342 1.42187,0.10254 0.49674,0.0684 1.03678,0.17546 1.62012,0.32129 l 0,0 z m 6.55567,1.16211 c 0.4147,10e-6 0.72916,-0.0911 0.94336,-0.27344 0.21418,-0.18228 0.32128,-0.45116 0.32128,-0.80664 0,-0.3509 -0.1071,-0.61864 -0.32128,-0.80322 -0.2142,-0.18456 -0.52866,-0.27685 -0.94336,-0.27686 l -1.45606,0 0,2.16016 1.45606,0 z m 0.0889,4.46387 c 0.52864,0 0.92627,-0.11166 1.19287,-0.33496 0.2666,-0.22331 0.3999,-0.56055 0.39991,-1.01172 -1e-5,-0.44206 -0.13217,-0.7736 -0.39649,-0.99463 -0.26433,-0.22103 -0.66309,-0.33154 -1.19629,-0.33155 l -1.54492,0 0,2.67286 1.54492,0 z m 2.44727,-3.6709 c 0.56509,0.16407 1.00259,0.46713 1.3125,0.90918 0.30988,0.44206 0.46483,0.98438 0.46484,1.62695 -1e-5,0.98438 -0.33269,1.7181 -0.99804,2.20117 -0.66538,0.48308 -1.6771,0.72461 -3.03516,0.72461 l -4.36816,0 0,-10.20605 3.95117,0 c 1.41731,10e-6 2.44384,0.2142 3.07959,0.64258 0.63573,0.42839 0.9536,1.11426 0.95361,2.05761 -1e-5,0.49675 -0.11622,0.91944 -0.34863,1.26807 -0.23243,0.34864 -0.56967,0.60726 -1.01172,0.77588 l 0,0 z"
       id="text2193"
       inkscape:connector-curvature="0" />
  </g>
</svg>
